<svg height="100%" style="fill-rule:evenodd;clip-rule:evenodd;stroke-linecap:round;stroke-linejoin:round;" xmlns:xlink="http://www.w3.org/1999/xlink" xmlns="http://www.w3.org/2000/svg" xml:space="preserve" width="100%" version="1.1" viewBox="0 0 644.877 550">
<defs/>
<g id="Layer 1">
<g opacity="1">
<g opacity="1">
<path d="M331.54+103.871L426.801+70.4789L434.521+120.841L354.91+141.995L331.54+103.871Z" opacity="1" fill="#0c0500"/>
<path d="M330.637+102.178L426.641+70.6923L428.709+88.0156L339.724+117.464L330.637+102.178Z" opacity="1" fill="#1d1d1d"/>
<path d="M340.896+76.1961L397.243+57.0736L448.237+72.0508L315.467+116.461L340.896+76.1961Z" opacity="1" fill="#0c0500"/>
<path d="M350.542+63.3482L382.708+51.9351L416.762+62.2695L331.201+90.6729L350.542+63.3482Z" opacity="1" fill="#1c1c1c"/>
<path d="M344.126+50.039L378.934+37.4658L417.803+54.541L325.04+85.3353L344.126+50.039Z" opacity="1" fill="#0c0500"/>
<path d="M358.092+116.272L354.636+106.39" opacity="1" fill="none"/>
<g opacity="1">
<path stroke="#000000" stroke-width="1" d="M343.136+110.177L351.428+107.425L354.068+115.377L345.776+118.13L343.136+110.177Z" fill="#710f04" stroke-linecap="butt" opacity="1" stroke-linejoin="round"/>
<path stroke="#000000" stroke-width="1" d="M344.415+114.284L352.8+111.351" fill="none" stroke-linecap="butt" opacity="1" stroke-linejoin="round"/>
<path stroke="#000000" stroke-width="1" d="M347.289+108.684L349.873+116.809" fill="none" stroke-linecap="butt" opacity="1" stroke-linejoin="round"/>
</g>
<g opacity="1">
<path stroke="#000000" stroke-width="1" d="M355.4+105.978L363.692+103.226L366.332+111.178L358.04+113.931L355.4+105.978Z" fill="#710f04" stroke-linecap="butt" opacity="1" stroke-linejoin="round"/>
<path stroke="#000000" stroke-width="1" d="M356.679+110.085L365.064+107.152" fill="none" stroke-linecap="butt" opacity="1" stroke-linejoin="round"/>
<path stroke="#000000" stroke-width="1" d="M359.553+104.485L362.137+112.61" fill="none" stroke-linecap="butt" opacity="1" stroke-linejoin="round"/>
</g>
<g opacity="1">
<path stroke="#000000" stroke-width="1" d="M368.303+101.855L376.595+99.1028L379.235+107.055L370.943+109.808L368.303+101.855Z" fill="#710f04" stroke-linecap="butt" opacity="1" stroke-linejoin="round"/>
<path stroke="#000000" stroke-width="1" d="M369.583+105.962L377.968+103.029" fill="none" stroke-linecap="butt" opacity="1" stroke-linejoin="round"/>
<path stroke="#000000" stroke-width="1" d="M372.456+100.362L375.041+108.487" fill="none" stroke-linecap="butt" opacity="1" stroke-linejoin="round"/>
</g>
<g opacity="1">
<path stroke="#000000" stroke-width="1" d="M380.718+98.0275L389.01+95.2749L391.65+103.227L383.358+105.98L380.718+98.0275Z" fill="#710f04" stroke-linecap="butt" opacity="1" stroke-linejoin="round"/>
<path stroke="#000000" stroke-width="1" d="M381.997+102.134L390.382+99.2008" fill="none" stroke-linecap="butt" opacity="1" stroke-linejoin="round"/>
<path stroke="#000000" stroke-width="1" d="M384.871+96.5339L387.455+104.659" fill="none" stroke-linecap="butt" opacity="1" stroke-linejoin="round"/>
</g>
<g opacity="1">
<path stroke="#000000" stroke-width="1" d="M392.929+93.9544L401.221+91.2018L403.861+99.154L395.569+101.907L392.929+93.9544Z" fill="#710f04" stroke-linecap="butt" opacity="1" stroke-linejoin="round"/>
<path stroke="#000000" stroke-width="1" d="M394.208+98.061L402.593+95.1277" fill="none" stroke-linecap="butt" opacity="1" stroke-linejoin="round"/>
<path stroke="#000000" stroke-width="1" d="M397.082+92.4608L399.666+100.586" fill="none" stroke-linecap="butt" opacity="1" stroke-linejoin="round"/>
</g>
<g opacity="1">
<path stroke="#000000" stroke-width="1" d="M404.451+89.7647L412.743+87.012L415.383+94.9643L407.091+97.717L404.451+89.7647Z" fill="#710f04" stroke-linecap="butt" opacity="1" stroke-linejoin="round"/>
<path stroke="#000000" stroke-width="1" d="M405.73+93.8713L414.115+90.938" fill="none" stroke-linecap="butt" opacity="1" stroke-linejoin="round"/>
<path stroke="#000000" stroke-width="1" d="M408.604+88.2711L411.188+96.3964" fill="none" stroke-linecap="butt" opacity="1" stroke-linejoin="round"/>
</g>
<g opacity="1">
<path stroke="#000000" stroke-width="1" d="M415.506+85.9325L423.798+83.1798L426.438+91.132L418.146+93.8847L415.506+85.9325Z" fill="#710f04" stroke-linecap="butt" opacity="1" stroke-linejoin="round"/>
<path stroke="#000000" stroke-width="1" d="M416.786+90.039L425.171+87.1058" fill="none" stroke-linecap="butt" opacity="1" stroke-linejoin="round"/>
<path stroke="#000000" stroke-width="1" d="M419.659+84.4388L422.244+92.5642" fill="none" stroke-linecap="butt" opacity="1" stroke-linejoin="round"/>
</g>
<path d="M363.719+117.519L367.719+116.191L371.126+126.454L367.126+127.782L363.719+117.519Z" opacity="1" fill="#000000"/>
<path d="M363.509+117.034L367.436+115.73L368.581+119.179L364.654+120.483L363.509+117.034Z" opacity="1" fill="#ffe6a0"/>
<path d="M409.257+102.634L413.257+101.306L416.664+111.569L412.664+112.897L409.257+102.634Z" opacity="1" fill="#000000"/>
<path d="M409.047+102.149L412.974+100.845L414.119+104.294L410.192+105.598L409.047+102.149Z" opacity="1" fill="#ffe6a0"/>
<path d="M376.108+112.47L400.438+104.393L404.033+115.222L379.703+123.299L376.108+112.47Z" opacity="1" fill="#000000"/>
<path d="M380.451+119.477L385.626+117.759L386.101+119.19L380.926+120.908L380.451+119.477Z" opacity="1" fill="#ffffff"/>
<path d="M378.798+114.628L383.973+112.911L384.448+114.342L379.273+116.06L378.798+114.628Z" opacity="1" fill="#ffffff"/>
<path d="M395.807+114.286L400.982+112.568L401.457+114L396.282+115.718L395.807+114.286Z" opacity="1" fill="#ffffff"/>
<path d="M394.05+109.501L399.225+107.783L399.7+109.215L394.525+110.933L394.05+109.501Z" opacity="1" fill="#ffffff"/>
<path d="M386.962+115.305C386.14+112.829+386.889+110.352+388.635+109.773C390.381+109.193+392.463+110.73+393.285+113.206C394.107+115.682+393.358+118.159+391.612+118.739C389.866+119.318+387.784+117.781+386.962+115.305Z" opacity="1" fill="#ffffff"/>
<g opacity="1">
<path d="M165.346+301.009C165.346+215.989+238.152+147.066+327.963+147.066C417.773+147.066+490.579+215.989+490.579+301.009C490.579+386.03+417.773+454.952+327.963+454.952C238.152+454.952+165.346+386.03+165.346+301.009Z" opacity="1" fill="#012a3f"/>
<path d="M250.493+321.175C273.479+199.31+306.885+180.059+326.549+179.478C343.211+178.986+364.841+181.766+403.819+323.899C416.68+370.794+376.58+405.97+329.564+420.543C278.822+436.271+243.804+356.636+250.493+321.175Z" opacity="1" fill="#d9f7fd"/>
</g>
<path d="M212.196+394.957C212.196+377.506+264.487+368.007+328.349+368.007C392.21+368.007+442.524+380.703+442.524+398.155C442.524+407.295+426.536+406.773+403.461+418.751C382.479+429.643+355.283+437.395+324.868+437.395C295.145+437.395+267.551+430.029+247.398+419.49C224.251+407.386+212.196+404.286+212.196+394.957Z" opacity="1" fill="#0c0500"/>
<path d="M216.973+399.915C216.973+382.464+272.121+379.115+328.687+377.169C371.339+375.702+435.718+383.16+435.718+400.611C435.718+409.751+406.948+429.666+383.874+441.644C362.891+452.535+361.441+443.985+331.027+444.047C302.34+444.105+288.162+451.004+268.008+440.465C244.862+428.36+216.973+409.245+216.973+399.915Z" opacity="1" fill="#ffffff"/>
<path d="M286.93+346.515C284.608+293.055+314.671+184.529+325.583+184.158C337.372+183.758+375.603+317.999+371.336+346.515C368.226+367.29+352.441+393.328+329.133+393.328C305.825+393.328+287.924+369.385+286.93+346.515Z" opacity="1" fill="#b1ddff"/>
<path d="M212.546+393.152C212.546+390.169+218.488+390.657+220.61+391.688C234.995+398.679+278.277+411.504+325.017+411.504C372.44+411.504+420.77+403.611+434.523+392.325C439.363+388.354+442.832+394.732+442.832+399.224C442.832+408.365+428.239+423.116+405.165+435.093C384.183+445.985+356.986+453.737+326.572+453.737C296.848+453.737+269.254+446.371+249.101+435.832C225.954+423.728+212.546+402.481+212.546+393.152Z" opacity="1" fill="#0c0500"/>
<path d="M356.891+303.087C337.044+284.967+288.463+276.263+289.431+233.148C290.443+188.123+354.833+211.956+341.964+175.844C320.034+114.309+496.942+81.9837+453.94+145.201C419.838+195.335+419.94+220.273+416.557+281.03C415.35+302.717+400.583+239.984+378.726+221.846C360.692+206.882+326.305+215.723+320.704+229.791C301.165+278.872+381.837+283.364+381.676+319.353C381.498+358.999+293.898+397.844+293.898+397.844C293.898+397.844+396.443+339.199+356.891+303.087Z" opacity="1" fill="#0c0500"/>
<path d="M197.895+205.094C207.316+204.153+197.202+303.861+210.454+310.977C216.217+314.073+219.125+317.397+225.015+321.292C255.951+341.747+284.212+366.322+287.336+370.928C292.422+378.429+223.843+324.502+202.012+321.963C199.827+321.709+198.776+226.711+189.916+223.997C179.03+220.663+185.286+239.28+180.021+239.864C162.409+241.816+114.201+319.104+94.0836+331.675C72.8157+344.964+63.3412+384.455+62.1919+382.747C60.9656+380.924+67.7557+342.644+88.5137+327.059C121.903+301.992+186.182+206.263+197.895+205.094Z" opacity="1" fill="#0c0500"/>
<path d="M510.933+301.447C498.667+295.387+488.118+345.711+465.636+350.902C429.843+359.167+395.214+372.254+390.766+375.477C383.524+380.726+463.939+354.771+485.294+360.122C487.195+360.598+500.009+316.132+508.296+316.525C520.773+317.117+545.46+353.606+550.646+356.237C566.562+364.315+569.081+383.673+583.869+402.62C599.502+422.65+520.567+485.291+522.208+484.092C523.959+482.813+606.465+426.709+592.064+404.702C568.9+369.303+521.56+306.698+510.933+301.447Z" opacity="1" fill="#0c0500"/>
<path d="M526.723+373.173C519.546+366.843+514.587+377.314+499.8+375.351C493.369+374.497+486.529+373.972+479.55+373.702C442.894+372.28+406.135+375.824+401.02+377.771C392.693+380.94+491.289+377.687+510.541+388.474C512.616+389.636+517.391+379.551+523.895+382.696C530.849+386.059+542.633+398.31+546.362+401.67C559.67+413.662+571.328+437.253+580.779+459.455C590.771+482.926+469.891+505.293+471.78+504.566C473.796+503.789+596.197+484.002+587.897+458.944C574.548+418.637+535.645+381.042+526.723+373.173Z" opacity="1" fill="#0c0500"/>
<path d="M494.102+263.675C484.979+261.057+498.787+258.436+484.552+263.067C478.361+265.081+462.386+332.164+455.938+334.943C422.068+349.538+390.149+368.672+386.307+372.649C380.051+379.124+441.566+344.806+463.491+346.224C465.567+346.358+479.228+278.442+490.91+276.065C506.736+272.845+505.431+291.908+510.742+293.494C527.766+298.578+568.404+350.068+586.131+366.061C604.872+382.967+481.207+448.249+482.623+446.772C484.134+445.197+607.288+384.197+589.431+365.121C560.707+334.437+505.445+266.929+494.102+263.675Z" opacity="1" fill="#0c0500"/>
<path d="M449.885+200.511C440.425+200.792+471.087+289.992+458.786+298.761C453.436+302.574+447.994+306.914+442.614+311.537C414.356+335.821+378.163+367.698+375.613+372.672C371.461+380.77+448.156+309.853+469.516+304.521C474.279+303.332+451.172+221.828+460.775+221.648C478.484+221.315+548.529+290.657+569.991+300.539C592.68+310.985+517.839+422.455+518.775+420.612C519.775+418.645+601.207+312.461+578.751+299.672C542.629+279.1+461.648+200.163+449.885+200.511Z" opacity="1" fill="#0c0500"/>
<path d="M136.985+331.427C148.433+323.833+169.097+355.028+192.025+357.282C228.528+360.872+264.451+369.395+269.249+372.02C277.061+376.295+201.421+357.92+180.869+365.982C178.978+366.723+152.318+344.3+142.336+346.424C128.119+349.451+122.734+370.264+118.009+373.471C103.179+383.537+89.2468+408.682+76.8331+429.388C63.7096+451.279+90.4055+499.955+88.6342+498.977C86.7442+497.933+61.3242+450.65+72.9891+426.957C91.752+388.846+127.065+338.007+136.985+331.427Z" opacity="1" fill="#0c0500"/>
<path d="M126.166+391.576C132.884+384.7+145.208+380.03+159.804+376.926C166.153+375.576+172.931+374.523+179.864+373.712C216.283+369.456+253.143+370.151+258.37+371.699C266.881+374.219+164.721+375.414+146.277+387.675C142.164+390.41+134.51+392.479+127.765+399.53C115.324+412.535+108.418+394.338+100.515+417.239C92.1599+441.45+173.41+505.154+171.478+504.573C169.417+503.954+89.3437+442.638+95.9043+416.974C106.457+375.693+117.814+400.124+126.166+391.576Z" opacity="1" fill="#0c0500"/>
<path d="M168.841+261.457C177.582+257.684+169.483+335.122+184.16+337.883C190.544+339.084+197.219+340.725+203.949+342.651C239.299+352.77+273.253+367.644+277.541+371.095C284.52+376.714+195.601+341.667+174.015+345.899C172.005+346.293+168.531+280.629+161.738+281.601C152.263+282.956+138.148+317.964+133.005+320.25C116.719+327.488+97.3963+374.358+81.7136+392.511C65.1341+411.702+119.248+477.279+117.666+475.996C115.979+474.627+59.6418+411.027+75.0858+389.798C99.9275+355.65+157.974+266.147+168.841+261.457Z" opacity="1" fill="#0c0500"/>
<path d="M293.482+458.016C293.058+447.731+298.54+426.85+300.53+426.779C302.68+426.702+309.652+452.53+308.874+458.016C308.307+462.013+305.428+467.023+301.178+467.023C296.927+467.023+293.663+462.416+293.482+458.016Z" opacity="1" fill="#f9900e"/>
<path d="M322.482+458.209C322.058+447.923+327.541+427.043+329.53+426.972C331.68+426.895+338.652+452.722+337.874+458.209C337.307+462.206+334.428+467.216+330.178+467.216C325.927+467.216+322.663+462.609+322.482+458.209Z" opacity="1" fill="#f9900e"/>
</g>
<path d="M353.072+161.929C353.194+145.038+382.653+129.804+401.04+125.434C416.678+121.717+436.229+118.749+440.962+131.359C447.179+147.921+430.773+165.071+422.682+173.155C389.83+205.979+423.074+232.547+402.875+232.442C380.419+232.326+421.079+183.524+383.823+184.822C364.024+185.511+352.941+180.192+353.072+161.929Z" opacity="1" fill="#f9900e"/>
<path d="M369.649+161.94C368.487+154.642+379.583+143.97+394.434+138.103C409.284+132.236+422.265+133.396+423.427+140.694C424.589+147.993+413.492+158.665+398.642+164.531C383.791+170.398+370.811+169.238+369.649+161.94Z" opacity="1" fill="#000000"/>
<path d="M381.176+158.132C378.102+154.531+382.277+148.008+390.503+143.561C398.729+139.114+407.889+138.428+410.964+142.028C414.039+145.628+409.863+152.152+401.638+156.599C393.412+161.046+384.251+161.732+381.176+158.132Z" opacity="1" fill="#012a3f"/>
<path stroke="#b1ddff" stroke-width="0.5" d="M396.653+144.561C398.973+144.173+402.297+143.999+403.139+145.004C404.352+146.451+404.113+147.698+403.14+149.174C402.098+150.757+399.223+153.326+395.59+154.072C392.877+154.629+390.35+153.735+389.546+152.529C388.908+151.572+389.084+150.325+390.234+149.069C391.229+147.982+394.077+146.715+395.962+146.34C397.296+146.074+400.98+145.542+401.491+147.027C401.733+147.732+401.187+148.671+400.044+149.669C398.511+151.01+396.969+151.889+395.619+152.306C394.402+152.682+392.535+153.409+391.628+151.991C390.532+150.278+393.605+149.179+395.307+148.567C396.186+148.251+398.889+147.857+399.058+148.247" fill="none" stroke-linecap="butt" opacity="1" stroke-linejoin="round"/>
</g>
</g>
</svg>
